<svg xmlns="http://www.w3.org/2000/svg" width="24px" height="24px" viewBox="0 0 37 37">
<path d="m 13.6785,35.127 v -9.1806 h 9.6431 v 3.754813 c -0.0025,1.439916 -0.578716,2.819951 -1.601957,3.837203 C 20.696319,34.555668 19.309452,35.127 17.863621,35.127 Z"/>
<path d="m 25.4953,23.7615 v -9.886 h 9.631601 v 4.36777 c 0.0013,0.724223 -0.138528,1.441532 -0.411421,2.111033 -0.272975,0.669415 -0.673566,1.277783 -1.179033,1.790364 -0.505466,0.51258 -1.105811,0.919171 -1.766633,1.196582 -0.660904,0.277413 -1.36929,0.420251 -2.084758,0.420251 z"/>
<path d="m 23.2638,13.8755 h -9.6432 v 9.886 h 9.6432 z"/>
<path d="M 1.87313,11.7244 V 7.3353246 c 0,-1.4486633 0.5796747,-2.837996 1.6115016,-3.8623555 C 4.5164584,2.4486096 5.9159191,1.87313 7.3751429,1.87313 H 11.5625 v 9.85127 z"/>
<path d="M 25.4953,11.7244 V 1.87313 h 4.162417 c 1.450511,0 2.841583,0.5754796 3.867307,1.5998391 1.025639,1.0243595 1.601876,2.4136921 1.601876,3.8623555 V 11.7244 Z"/>
<path d="m 23.2638,1.87313 h -9.6432 v 9.85127 h 9.6432 z"/>
<path d="M 1.87313,29.701213 V 25.9464 H 11.5625 V 35.127 H 7.3476387 C 5.8957094,35.127 4.5032446,34.555336 3.4765759,33.537835 2.449907,32.520333 1.87313,31.140216 1.87313,29.701213 Z"/>
<path d="M 11.5625,13.8755 H 1.87313 v 9.886 h 9.68937 z"/>
</svg>
